# xmcd CD database file
#
# Track frame offsets:
#	187
#	19832
#	39247
#	60925
#	88260
#	109237
#	130425
#
# Disc length: 2132 seconds
#
# Revision: 0
# Processed by: cddbd v1.5.1PL0 Copyright (c) Steve Scherf et al.
# Submitted via: CDex 1.51
#
DISCID=56085207
DTITLE=SUBLIMINAL CALM - SUBLIMINAL CALM
DYEAR=1992
DGENRE=Country
TTITLE0=Country Living (flute)
TTITLE1=メルティング・グリーン
TTITLE2=Melting Dub (pianica)
TTITLE3=カントリー・リビング
TTITLE4=かすかなしるし (piano)
TTITLE5=かすかなしるし
TTITLE6=誰もいない (ain't noone judge us)
EXTD=YEAR: 1992
EXTT0=
EXTT1=
EXTT2=
EXTT3=
EXTT4=
EXTT5=
EXTT6=
PLAYORDER=
